<svg width="223" height="143" viewBox="0 0 223 143" fill="none" xmlns="http://www.w3.org/2000/svg">
<g filter="url(#filter0_d_1_535)">
<rect x="24" y="16" width="175" height="95" rx="16" fill="white"/>
</g>
<path opacity="0.5" d="M76.0365 48.12C75.4285 48.12 74.8605 48.008 74.3325 47.784C73.8045 47.56 73.3405 47.252 72.9405 46.86C72.5405 46.46 72.2245 46 71.9925 45.48C71.7685 44.96 71.6565 44.4 71.6565 43.8C71.6565 43.2 71.7685 42.64 71.9925 42.12C72.2245 41.6 72.5405 41.144 72.9405 40.752C73.3405 40.352 73.8045 40.04 74.3325 39.816C74.8605 39.592 75.4285 39.48 76.0365 39.48C76.4125 39.48 76.7765 39.52 77.1285 39.6C77.4805 39.68 77.8045 39.8 78.1005 39.96C78.2205 40.024 78.3085 40.112 78.3645 40.224C78.4285 40.328 78.4605 40.436 78.4605 40.548C78.4605 40.74 78.3965 40.912 78.2685 41.064C78.1405 41.216 77.9765 41.292 77.7765 41.292C77.7125 41.292 77.6445 41.284 77.5725 41.268C77.5085 41.252 77.4445 41.228 77.3805 41.196C77.1805 41.108 76.9685 41.04 76.7445 40.992C76.5205 40.944 76.2845 40.92 76.0365 40.92C75.5165 40.92 75.0405 41.052 74.6085 41.316C74.1845 41.572 73.8445 41.92 73.5885 42.36C73.3405 42.792 73.2165 43.272 73.2165 43.8C73.2165 44.32 73.3405 44.8 73.5885 45.24C73.8445 45.68 74.1845 46.032 74.6085 46.296C75.0405 46.552 75.5165 46.68 76.0365 46.68C76.2765 46.68 76.5405 46.656 76.8285 46.608C77.1165 46.56 77.3525 46.496 77.5365 46.416L77.4285 46.776V44.724L77.6325 44.904H76.3005C76.0925 44.904 75.9165 44.836 75.7725 44.7C75.6365 44.564 75.5685 44.392 75.5685 44.184C75.5685 43.976 75.6365 43.804 75.7725 43.668C75.9165 43.532 76.0925 43.464 76.3005 43.464H78.2685C78.4765 43.464 78.6485 43.536 78.7845 43.68C78.9205 43.816 78.9885 43.988 78.9885 44.196V46.74C78.9885 46.9 78.9485 47.032 78.8685 47.136C78.7965 47.24 78.7125 47.324 78.6165 47.388C78.2485 47.612 77.8445 47.792 77.4045 47.928C76.9725 48.056 76.5165 48.12 76.0365 48.12ZM81.416 48C81.192 48 80.992 47.932 80.816 47.796C80.64 47.652 80.552 47.476 80.552 47.268V40.332C80.552 40.124 80.62 39.952 80.756 39.816C80.9 39.672 81.076 39.6 81.284 39.6H84.74C85.156 39.6 85.544 39.712 85.904 39.936C86.272 40.152 86.568 40.456 86.792 40.848C87.016 41.232 87.128 41.676 87.128 42.18C87.128 42.484 87.064 42.78 86.936 43.068C86.816 43.356 86.648 43.616 86.432 43.848C86.224 44.08 85.988 44.26 85.724 44.388L85.736 44.112C85.96 44.232 86.144 44.376 86.288 44.544C86.44 44.704 86.556 44.88 86.636 45.072C86.724 45.256 86.776 45.456 86.792 45.672C86.824 45.872 86.844 46.048 86.852 46.2C86.868 46.352 86.892 46.48 86.924 46.584C86.964 46.688 87.036 46.768 87.14 46.824C87.316 46.928 87.424 47.08 87.464 47.28C87.512 47.472 87.468 47.644 87.332 47.796C87.244 47.9 87.132 47.968 86.996 48C86.86 48.024 86.724 48.024 86.588 48C86.452 47.968 86.34 47.928 86.252 47.88C86.116 47.8 85.98 47.684 85.844 47.532C85.708 47.372 85.596 47.16 85.508 46.896C85.428 46.632 85.388 46.292 85.388 45.876C85.388 45.74 85.364 45.616 85.316 45.504C85.268 45.384 85.2 45.284 85.112 45.204C85.024 45.116 84.912 45.052 84.776 45.012C84.64 44.964 84.48 44.94 84.296 44.94H81.872L82.052 44.664V47.268C82.052 47.476 81.996 47.652 81.884 47.796C81.772 47.932 81.616 48 81.416 48ZM81.884 43.704H84.68C84.824 43.704 84.964 43.64 85.1 43.512C85.236 43.376 85.348 43.196 85.436 42.972C85.524 42.74 85.568 42.488 85.568 42.216C85.568 41.864 85.472 41.572 85.28 41.34C85.096 41.1 84.896 40.98 84.68 40.98H81.908L82.052 40.596V43.992L81.884 43.704ZM89.6422 39.6H93.6622C93.8702 39.6 94.0422 39.668 94.1782 39.804C94.3222 39.932 94.3942 40.1 94.3942 40.308C94.3942 40.508 94.3222 40.672 94.1782 40.8C94.0422 40.92 93.8702 40.98 93.6622 40.98H90.3022L90.4102 40.776V43.116L90.3142 43.02H93.1222C93.3302 43.02 93.5022 43.088 93.6382 43.224C93.7822 43.352 93.8542 43.52 93.8542 43.728C93.8542 43.928 93.7822 44.092 93.6382 44.22C93.5022 44.34 93.3302 44.4 93.1222 44.4H90.3502L90.4102 44.304V46.728L90.3142 46.62H93.6622C93.8702 46.62 94.0422 46.692 94.1782 46.836C94.3222 46.972 94.3942 47.132 94.3942 47.316C94.3942 47.516 94.3222 47.68 94.1782 47.808C94.0422 47.936 93.8702 48 93.6622 48H89.6422C89.4342 48 89.2582 47.932 89.1142 47.796C88.9782 47.652 88.9102 47.476 88.9102 47.268V40.332C88.9102 40.124 88.9782 39.952 89.1142 39.816C89.2582 39.672 89.4342 39.6 89.6422 39.6ZM98.9814 41.484L96.3894 47.58C96.3334 47.732 96.2454 47.852 96.1254 47.94C96.0134 48.02 95.8894 48.06 95.7534 48.06C95.5374 48.06 95.3774 48 95.2734 47.88C95.1694 47.76 95.1174 47.612 95.1174 47.436C95.1174 47.364 95.1294 47.288 95.1534 47.208L98.1414 40.032C98.2054 39.872 98.3014 39.748 98.4294 39.66C98.5654 39.572 98.7094 39.536 98.8614 39.552C99.0054 39.552 99.1374 39.596 99.2574 39.684C99.3854 39.764 99.4774 39.88 99.5334 40.032L102.485 47.064C102.525 47.168 102.545 47.264 102.545 47.352C102.545 47.568 102.473 47.74 102.329 47.868C102.193 47.996 102.041 48.06 101.873 48.06C101.729 48.06 101.597 48.016 101.477 47.928C101.365 47.84 101.277 47.72 101.213 47.568L98.6334 41.556L98.9814 41.484ZM96.7614 46.116L97.4214 44.736H100.661L100.889 46.116H96.7614ZM105.928 48C105.704 48 105.52 47.932 105.376 47.796C105.232 47.652 105.16 47.476 105.16 47.268V40.308H106.72V47.268C106.72 47.476 106.644 47.652 106.492 47.796C106.348 47.932 106.16 48 105.928 48ZM103.276 40.98C103.068 40.98 102.892 40.916 102.748 40.788C102.612 40.66 102.544 40.492 102.544 40.284C102.544 40.076 102.612 39.912 102.748 39.792C102.892 39.664 103.068 39.6 103.276 39.6H108.604C108.812 39.6 108.984 39.664 109.12 39.792C109.264 39.92 109.336 40.088 109.336 40.296C109.336 40.504 109.264 40.672 109.12 40.8C108.984 40.92 108.812 40.98 108.604 40.98H103.276ZM117.667 39.6C118.083 39.6 118.471 39.72 118.831 39.96C119.199 40.2 119.495 40.524 119.719 40.932C119.943 41.34 120.055 41.796 120.055 42.3C120.055 42.796 119.943 43.248 119.719 43.656C119.495 44.064 119.199 44.392 118.831 44.64C118.471 44.88 118.083 45 117.667 45H115.459L115.579 44.784V47.268C115.579 47.476 115.515 47.652 115.387 47.796C115.259 47.932 115.091 48 114.883 48C114.683 48 114.519 47.932 114.391 47.796C114.263 47.652 114.199 47.476 114.199 47.268V40.332C114.199 40.124 114.267 39.952 114.403 39.816C114.547 39.672 114.723 39.6 114.931 39.6H117.667ZM117.667 43.632C117.819 43.632 117.967 43.568 118.111 43.44C118.255 43.312 118.375 43.148 118.471 42.948C118.567 42.74 118.615 42.524 118.615 42.3C118.615 42.068 118.567 41.852 118.471 41.652C118.375 41.452 118.255 41.292 118.111 41.172C117.967 41.044 117.819 40.98 117.667 40.98H115.435L115.579 40.764V43.824L115.447 43.632H117.667ZM122.413 48C122.189 48 121.989 47.932 121.813 47.796C121.637 47.652 121.549 47.476 121.549 47.268V40.332C121.549 40.124 121.617 39.952 121.753 39.816C121.897 39.672 122.073 39.6 122.281 39.6H125.737C126.153 39.6 126.541 39.712 126.901 39.936C127.269 40.152 127.565 40.456 127.789 40.848C128.013 41.232 128.125 41.676 128.125 42.18C128.125 42.484 128.061 42.78 127.933 43.068C127.813 43.356 127.645 43.616 127.429 43.848C127.221 44.08 126.985 44.26 126.721 44.388L126.733 44.112C126.957 44.232 127.141 44.376 127.285 44.544C127.437 44.704 127.553 44.88 127.633 45.072C127.721 45.256 127.773 45.456 127.789 45.672C127.821 45.872 127.841 46.048 127.849 46.2C127.865 46.352 127.889 46.48 127.921 46.584C127.961 46.688 128.033 46.768 128.137 46.824C128.313 46.928 128.421 47.08 128.461 47.28C128.509 47.472 128.465 47.644 128.329 47.796C128.241 47.9 128.129 47.968 127.993 48C127.857 48.024 127.721 48.024 127.585 48C127.449 47.968 127.337 47.928 127.249 47.88C127.113 47.8 126.977 47.684 126.841 47.532C126.705 47.372 126.593 47.16 126.505 46.896C126.425 46.632 126.385 46.292 126.385 45.876C126.385 45.74 126.361 45.616 126.313 45.504C126.265 45.384 126.197 45.284 126.109 45.204C126.021 45.116 125.909 45.052 125.773 45.012C125.637 44.964 125.477 44.94 125.293 44.94H122.869L123.049 44.664V47.268C123.049 47.476 122.993 47.652 122.881 47.796C122.769 47.932 122.613 48 122.413 48ZM122.881 43.704H125.677C125.821 43.704 125.961 43.64 126.097 43.512C126.233 43.376 126.345 43.196 126.433 42.972C126.521 42.74 126.565 42.488 126.565 42.216C126.565 41.864 126.469 41.572 126.277 41.34C126.093 41.1 125.893 40.98 125.677 40.98H122.905L123.049 40.596V43.992L122.881 43.704ZM137.518 43.8C137.518 44.4 137.418 44.96 137.218 45.48C137.018 46 136.734 46.46 136.366 46.86C136.006 47.252 135.574 47.56 135.07 47.784C134.574 48.008 134.03 48.12 133.438 48.12C132.846 48.12 132.302 48.008 131.806 47.784C131.31 47.56 130.878 47.252 130.51 46.86C130.15 46.46 129.87 46 129.67 45.48C129.47 44.96 129.37 44.4 129.37 43.8C129.37 43.2 129.47 42.64 129.67 42.12C129.87 41.6 130.15 41.144 130.51 40.752C130.878 40.352 131.31 40.04 131.806 39.816C132.302 39.592 132.846 39.48 133.438 39.48C134.03 39.48 134.574 39.592 135.07 39.816C135.574 40.04 136.006 40.352 136.366 40.752C136.734 41.144 137.018 41.6 137.218 42.12C137.418 42.64 137.518 43.2 137.518 43.8ZM135.958 43.8C135.958 43.264 135.85 42.78 135.634 42.348C135.418 41.908 135.122 41.56 134.746 41.304C134.37 41.048 133.934 40.92 133.438 40.92C132.942 40.92 132.506 41.048 132.13 41.304C131.754 41.56 131.458 41.904 131.242 42.336C131.034 42.768 130.93 43.256 130.93 43.8C130.93 44.336 131.034 44.824 131.242 45.264C131.458 45.696 131.754 46.04 132.13 46.296C132.506 46.552 132.942 46.68 133.438 46.68C133.934 46.68 134.37 46.552 134.746 46.296C135.122 46.04 135.418 45.696 135.634 45.264C135.85 44.824 135.958 44.336 135.958 43.8ZM140.796 48.12C140.34 48.12 139.916 48.028 139.524 47.844C139.132 47.66 138.812 47.396 138.564 47.052C138.468 46.908 138.42 46.768 138.42 46.632C138.42 46.432 138.496 46.264 138.648 46.128C138.808 45.992 138.964 45.924 139.116 45.924C139.236 45.924 139.352 45.96 139.464 46.032C139.584 46.104 139.692 46.188 139.788 46.284C139.948 46.428 140.104 46.532 140.256 46.596C140.416 46.652 140.596 46.68 140.796 46.68C141.036 46.68 141.26 46.62 141.468 46.5C141.676 46.38 141.844 46.22 141.972 46.02C142.1 45.82 142.164 45.604 142.164 45.372V40.332C142.164 40.124 142.24 39.952 142.392 39.816C142.544 39.672 142.72 39.6 142.92 39.6C143.144 39.6 143.324 39.672 143.46 39.816C143.596 39.952 143.664 40.124 143.664 40.332V45.372C143.664 45.86 143.536 46.312 143.28 46.728C143.024 47.144 142.68 47.48 142.248 47.736C141.816 47.992 141.332 48.12 140.796 48.12ZM146.313 39.6H150.333C150.541 39.6 150.713 39.668 150.849 39.804C150.993 39.932 151.065 40.1 151.065 40.308C151.065 40.508 150.993 40.672 150.849 40.8C150.713 40.92 150.541 40.98 150.333 40.98H146.973L147.081 40.776V43.116L146.985 43.02H149.793C150.001 43.02 150.173 43.088 150.309 43.224C150.453 43.352 150.525 43.52 150.525 43.728C150.525 43.928 150.453 44.092 150.309 44.22C150.173 44.34 150.001 44.4 149.793 44.4H147.021L147.081 44.304V46.728L146.985 46.62H150.333C150.541 46.62 150.713 46.692 150.849 46.836C150.993 46.972 151.065 47.132 151.065 47.316C151.065 47.516 150.993 47.68 150.849 47.808C150.713 47.936 150.541 48 150.333 48H146.313C146.105 48 145.929 47.932 145.785 47.796C145.649 47.652 145.581 47.476 145.581 47.268V40.332C145.581 40.124 145.649 39.952 145.785 39.816C145.929 39.672 146.105 39.6 146.313 39.6ZM158.448 40.008C158.656 40.112 158.776 40.276 158.808 40.5C158.848 40.724 158.792 40.928 158.64 41.112C158.536 41.256 158.4 41.336 158.232 41.352C158.072 41.368 157.908 41.336 157.74 41.256C157.548 41.168 157.344 41.1 157.128 41.052C156.92 41.004 156.7 40.98 156.468 40.98C156.036 40.98 155.648 41.048 155.304 41.184C154.968 41.32 154.68 41.516 154.44 41.772C154.2 42.02 154.016 42.316 153.888 42.66C153.768 43.004 153.708 43.384 153.708 43.8C153.708 44.288 153.776 44.712 153.912 45.072C154.056 45.432 154.252 45.732 154.5 45.972C154.748 46.212 155.04 46.392 155.376 46.512C155.712 46.624 156.076 46.68 156.468 46.68C156.684 46.68 156.9 46.66 157.116 46.62C157.332 46.58 157.54 46.508 157.74 46.404C157.908 46.324 158.072 46.296 158.232 46.32C158.4 46.344 158.54 46.428 158.652 46.572C158.812 46.772 158.868 46.98 158.82 47.196C158.78 47.404 158.66 47.556 158.46 47.652C158.252 47.756 158.036 47.844 157.812 47.916C157.596 47.98 157.376 48.028 157.152 48.06C156.928 48.1 156.7 48.12 156.468 48.12C155.892 48.12 155.344 48.028 154.824 47.844C154.312 47.66 153.852 47.388 153.444 47.028C153.044 46.668 152.728 46.22 152.496 45.684C152.264 45.14 152.148 44.512 152.148 43.8C152.148 43.184 152.252 42.616 152.46 42.096C152.676 41.576 152.976 41.128 153.36 40.752C153.752 40.368 154.212 40.072 154.74 39.864C155.268 39.648 155.844 39.54 156.468 39.54C156.82 39.54 157.164 39.58 157.5 39.66C157.836 39.74 158.152 39.856 158.448 40.008ZM163.056 48C162.832 48 162.648 47.932 162.504 47.796C162.36 47.652 162.288 47.476 162.288 47.268V40.308H163.848V47.268C163.848 47.476 163.772 47.652 163.62 47.796C163.476 47.932 163.288 48 163.056 48ZM160.404 40.98C160.196 40.98 160.02 40.916 159.876 40.788C159.74 40.66 159.672 40.492 159.672 40.284C159.672 40.076 159.74 39.912 159.876 39.792C160.02 39.664 160.196 39.6 160.404 39.6H165.732C165.94 39.6 166.112 39.664 166.248 39.792C166.392 39.92 166.464 40.088 166.464 40.296C166.464 40.504 166.392 40.672 166.248 40.8C166.112 40.92 165.94 40.98 165.732 40.98H160.404Z" fill="#1D1D1D"/>
<path d="M51.5134 86.24C50.2014 86.24 49.0734 86.056 48.1294 85.688C47.2014 85.304 46.4814 84.752 45.9694 84.032C45.4734 83.312 45.2254 82.448 45.2254 81.44C45.2254 80.64 45.3854 79.936 45.7054 79.328C46.0414 78.704 46.4974 78.2 47.0734 77.816C47.6494 77.432 48.3054 77.192 49.0414 77.096V77.6C48.0174 77.376 47.1934 76.888 46.5694 76.136C45.9614 75.368 45.6574 74.456 45.6574 73.4C45.6574 72.44 45.8974 71.624 46.3774 70.952C46.8574 70.264 47.5374 69.744 48.4174 69.392C49.2974 69.024 50.3294 68.84 51.5134 68.84C52.7134 68.84 53.7534 69.024 54.6334 69.392C55.5134 69.744 56.1934 70.264 56.6734 70.952C57.1534 71.624 57.3934 72.44 57.3934 73.4C57.3934 74.104 57.2494 74.752 56.9614 75.344C56.6894 75.936 56.2974 76.424 55.7854 76.808C55.2894 77.192 54.7054 77.448 54.0334 77.576V77.096C55.1534 77.256 56.0574 77.728 56.7454 78.512C57.4494 79.28 57.8014 80.256 57.8014 81.44C57.8014 82.448 57.5454 83.312 57.0334 84.032C56.5374 84.752 55.8174 85.304 54.8734 85.688C53.9454 86.056 52.8254 86.24 51.5134 86.24ZM51.5134 83.84C52.6494 83.84 53.5054 83.624 54.0814 83.192C54.6574 82.744 54.9454 82.088 54.9454 81.224C54.9454 80.36 54.6574 79.712 54.0814 79.28C53.5054 78.848 52.6494 78.632 51.5134 78.632C50.3934 78.632 49.5374 78.848 48.9454 79.28C48.3694 79.712 48.0814 80.36 48.0814 81.224C48.0814 82.088 48.3694 82.744 48.9454 83.192C49.5374 83.624 50.3934 83.84 51.5134 83.84ZM51.5134 76.232C52.1534 76.232 52.6974 76.136 53.1454 75.944C53.5934 75.736 53.9374 75.44 54.1774 75.056C54.4174 74.672 54.5374 74.224 54.5374 73.712C54.5374 72.944 54.2654 72.344 53.7214 71.912C53.1934 71.464 52.4574 71.24 51.5134 71.24C50.5694 71.24 49.8334 71.464 49.3054 71.912C48.7774 72.344 48.5134 72.944 48.5134 73.712C48.5134 74.496 48.7774 75.112 49.3054 75.56C49.8334 76.008 50.5694 76.232 51.5134 76.232ZM66.1441 86.24C64.1441 86.24 62.6161 85.488 61.5601 83.984C60.5041 82.464 59.9761 80.304 59.9761 77.504C59.9761 75.616 60.2081 74.032 60.6721 72.752C61.1521 71.456 61.8481 70.48 62.7601 69.824C63.6881 69.168 64.8161 68.84 66.1441 68.84C68.1601 68.84 69.6881 69.576 70.7281 71.048C71.7841 72.52 72.3121 74.664 72.3121 77.48C72.3121 79.352 72.0721 80.944 71.5921 82.256C71.1281 83.552 70.4401 84.544 69.5281 85.232C68.6161 85.904 67.4881 86.24 66.1441 86.24ZM66.1441 83.72C67.2321 83.72 68.0321 83.216 68.5441 82.208C69.0721 81.2 69.3361 79.624 69.3361 77.48C69.3361 75.336 69.0721 73.784 68.5441 72.824C68.0321 71.848 67.2321 71.36 66.1441 71.36C65.0721 71.36 64.2721 71.848 63.7441 72.824C63.2161 73.784 62.9521 75.336 62.9521 77.48C62.9521 79.624 63.2161 81.2 63.7441 82.208C64.2721 83.216 65.0721 83.72 66.1441 83.72ZM80.7747 86.24C78.7747 86.24 77.2467 85.488 76.1907 83.984C75.1347 82.464 74.6067 80.304 74.6067 77.504C74.6067 75.616 74.8387 74.032 75.3027 72.752C75.7827 71.456 76.4787 70.48 77.3907 69.824C78.3187 69.168 79.4467 68.84 80.7747 68.84C82.7907 68.84 84.3187 69.576 85.3587 71.048C86.4147 72.52 86.9427 74.664 86.9427 77.48C86.9427 79.352 86.7027 80.944 86.2227 82.256C85.7587 83.552 85.0707 84.544 84.1587 85.232C83.2467 85.904 82.1187 86.24 80.7747 86.24ZM80.7747 83.72C81.8627 83.72 82.6627 83.216 83.1747 82.208C83.7027 81.2 83.9667 79.624 83.9667 77.48C83.9667 75.336 83.7027 73.784 83.1747 72.824C82.6627 71.848 81.8627 71.36 80.7747 71.36C79.7027 71.36 78.9027 71.848 78.3747 72.824C77.8467 73.784 77.5827 75.336 77.5827 77.48C77.5827 79.624 77.8467 81.2 78.3747 82.208C78.9027 83.216 79.7027 83.72 80.7747 83.72ZM95.4053 85.232C95.0533 85.232 94.7813 85.136 94.5893 84.944C94.3973 84.736 94.3013 84.456 94.3013 84.104V80.168H90.4373C90.1013 80.168 89.8373 80.08 89.6453 79.904C89.4533 79.712 89.3573 79.448 89.3573 79.112C89.3573 78.776 89.4533 78.52 89.6453 78.344C89.8373 78.152 90.1013 78.056 90.4373 78.056H94.3013V74.24C94.3013 73.888 94.3973 73.616 94.5893 73.424C94.7813 73.232 95.0613 73.136 95.4293 73.136C95.7813 73.136 96.0453 73.232 96.2213 73.424C96.4133 73.616 96.5093 73.888 96.5093 74.24V78.056H100.373C100.725 78.056 100.989 78.152 101.165 78.344C101.357 78.52 101.453 78.776 101.453 79.112C101.453 79.448 101.357 79.712 101.165 79.904C100.989 80.08 100.725 80.168 100.373 80.168H96.5093V84.104C96.5093 84.456 96.4133 84.736 96.2213 84.944C96.0453 85.136 95.7733 85.232 95.4053 85.232ZM112.572 86C112.22 86 111.948 85.912 111.756 85.736C111.58 85.544 111.492 85.272 111.492 84.92V70.16C111.492 69.808 111.58 69.544 111.756 69.368C111.948 69.176 112.22 69.08 112.572 69.08H117.204C119.94 69.08 122.052 69.8 123.54 71.24C125.028 72.68 125.772 74.776 125.772 77.528C125.772 78.904 125.58 80.12 125.196 81.176C124.828 82.216 124.276 83.096 123.54 83.816C122.804 84.536 121.908 85.08 120.852 85.448C119.796 85.816 118.58 86 117.204 86H112.572ZM113.46 84.32H117.06C118.18 84.32 119.148 84.176 119.964 83.888C120.796 83.6 121.484 83.176 122.028 82.616C122.588 82.056 123.004 81.352 123.276 80.504C123.548 79.64 123.684 78.648 123.684 77.528C123.684 75.272 123.132 73.584 122.028 72.464C120.924 71.328 119.268 70.76 117.06 70.76H113.46V84.32ZM134.129 86.216C132.993 86.216 132.009 85.968 131.177 85.472C130.345 84.976 129.697 84.28 129.233 83.384C128.785 82.472 128.561 81.4 128.561 80.168C128.561 79.24 128.689 78.408 128.945 77.672C129.201 76.92 129.577 76.28 130.073 75.752C130.569 75.224 131.153 74.824 131.825 74.552C132.513 74.264 133.281 74.12 134.129 74.12C135.265 74.12 136.249 74.368 137.081 74.864C137.913 75.36 138.553 76.064 139.001 76.976C139.465 77.872 139.697 78.936 139.697 80.168C139.697 81.096 139.569 81.928 139.313 82.664C139.057 83.4 138.681 84.04 138.185 84.584C137.689 85.112 137.097 85.52 136.409 85.808C135.737 86.08 134.977 86.216 134.129 86.216ZM134.129 84.656C134.849 84.656 135.481 84.48 136.025 84.128C136.569 83.776 136.985 83.264 137.273 82.592C137.577 81.92 137.729 81.112 137.729 80.168C137.729 78.712 137.401 77.6 136.745 76.832C136.105 76.064 135.233 75.68 134.129 75.68C133.393 75.68 132.753 75.856 132.209 76.208C131.681 76.544 131.265 77.048 130.961 77.72C130.673 78.376 130.529 79.192 130.529 80.168C130.529 81.608 130.857 82.72 131.513 83.504C132.169 84.272 133.041 84.656 134.129 84.656ZM143.817 86.168C143.497 86.168 143.257 86.08 143.097 85.904C142.937 85.728 142.857 85.48 142.857 85.16V75.152C142.857 74.832 142.937 74.592 143.097 74.432C143.257 74.256 143.489 74.168 143.793 74.168C144.097 74.168 144.329 74.256 144.489 74.432C144.665 74.592 144.753 74.832 144.753 75.152V77.216L144.489 76.928C144.825 76 145.369 75.304 146.121 74.84C146.889 74.36 147.769 74.12 148.761 74.12C149.689 74.12 150.457 74.288 151.065 74.624C151.689 74.96 152.153 75.472 152.457 76.16C152.761 76.832 152.913 77.688 152.913 78.728V85.16C152.913 85.48 152.825 85.728 152.649 85.904C152.489 86.08 152.257 86.168 151.953 86.168C151.633 86.168 151.385 86.08 151.209 85.904C151.049 85.728 150.969 85.48 150.969 85.16V78.848C150.969 77.76 150.753 76.968 150.321 76.472C149.905 75.96 149.233 75.704 148.305 75.704C147.233 75.704 146.377 76.04 145.737 76.712C145.113 77.368 144.801 78.248 144.801 79.352V85.16C144.801 85.832 144.473 86.168 143.817 86.168ZM161.993 86.216C160.761 86.216 159.697 85.976 158.801 85.496C157.921 85 157.233 84.304 156.737 83.408C156.257 82.512 156.017 81.44 156.017 80.192C156.017 78.976 156.257 77.92 156.737 77.024C157.217 76.112 157.873 75.4 158.705 74.888C159.553 74.376 160.529 74.12 161.633 74.12C162.417 74.12 163.121 74.256 163.745 74.528C164.369 74.784 164.897 75.16 165.329 75.656C165.777 76.152 166.113 76.752 166.337 77.456C166.577 78.16 166.697 78.952 166.697 79.832C166.697 80.088 166.625 80.28 166.481 80.408C166.337 80.52 166.129 80.576 165.857 80.576H157.505V79.304H165.401L165.017 79.616C165.017 78.752 164.889 78.024 164.633 77.432C164.377 76.824 164.001 76.36 163.505 76.04C163.025 75.72 162.417 75.56 161.681 75.56C160.865 75.56 160.169 75.752 159.593 76.136C159.033 76.504 158.609 77.024 158.321 77.696C158.033 78.352 157.889 79.12 157.889 80V80.144C157.889 81.616 158.241 82.736 158.945 83.504C159.665 84.272 160.681 84.656 161.993 84.656C162.537 84.656 163.073 84.584 163.601 84.44C164.145 84.296 164.673 84.056 165.185 83.72C165.409 83.576 165.609 83.512 165.785 83.528C165.977 83.528 166.129 83.584 166.241 83.696C166.353 83.792 166.425 83.92 166.457 84.08C166.505 84.224 166.489 84.384 166.409 84.56C166.345 84.736 166.209 84.888 166.001 85.016C165.473 85.4 164.849 85.696 164.129 85.904C163.409 86.112 162.697 86.216 161.993 86.216Z" fill="#1D1D1D"/>
<path d="M55.1033 34.8166C55.4701 34.0735 56.5299 34.0735 56.8967 34.8166L58.8576 38.7891C59.0031 39.0839 59.2843 39.2884 59.6096 39.336L63.9962 39.9771C64.8161 40.097 65.1429 41.1048 64.5493 41.683L61.3768 44.773C61.1409 45.0027 61.0333 45.3339 61.0889 45.6584L61.8374 50.0226C61.9775 50.8396 61.12 51.4626 60.3864 51.0767L56.4655 49.0148C56.1741 48.8615 55.8259 48.8615 55.5345 49.0148L51.6136 51.0767C50.88 51.4626 50.0225 50.8396 50.1626 50.0226L50.9111 45.6584C50.9667 45.3339 50.8591 45.0027 50.6232 44.773L47.4507 41.683C46.8571 41.1048 47.1839 40.097 48.0038 39.9771L52.3904 39.336C52.7157 39.2884 52.9969 39.0839 53.1424 38.7891L55.1033 34.8166Z" fill="#F8BD38"/>
<defs>
<filter id="filter0_d_1_535" x="0" y="0" width="223" height="143" filterUnits="userSpaceOnUse" color-interpolation-filters="sRGB">
<feFlood flood-opacity="0" result="BackgroundImageFix"/>
<feColorMatrix in="SourceAlpha" type="matrix" values="0 0 0 0 0 0 0 0 0 0 0 0 0 0 0 0 0 0 127 0" result="hardAlpha"/>
<feOffset dy="8"/>
<feGaussianBlur stdDeviation="12"/>
<feComposite in2="hardAlpha" operator="out"/>
<feColorMatrix type="matrix" values="0 0 0 0 0 0 0 0 0 0 0 0 0 0 0 0 0 0 0.15 0"/>
<feBlend mode="normal" in2="BackgroundImageFix" result="effect1_dropShadow_1_535"/>
<feBlend mode="normal" in="SourceGraphic" in2="effect1_dropShadow_1_535" result="shape"/>
</filter>
</defs>
</svg>
